<?xml version="1.0" standalone="no"?>
<!DOCTYPE svg PUBLIC "-//W3C//DTD SVG 20010904//EN"
 "http://www.w3.org/TR/2001/REC-SVG-20010904/DTD/svg10.dtd">
<svg version="1.0" xmlns="http://www.w3.org/2000/svg"
 width="32.000000pt" height="32.000000pt" viewBox="0 0 32.000000 32.000000"
 preserveAspectRatio="xMidYMid meet">

<g transform="translate(0.000000,32.000000) scale(0.100000,-0.100000)"
fill="#000000" stroke="none">
<path d="M27 274 c-4 -4 -7 -43 -7 -87 0 -70 2 -79 19 -84 12 -3 21 -15 23
-32 l3 -26 115 0 115 0 3 83 c3 76 1 84 -17 89 -12 3 -21 15 -23 32 l-3 26
-111 3 c-60 1 -113 -1 -117 -4z m213 -24 c0 -6 -40 -10 -100 -10 -60 0 -100 4
-100 10 0 6 40 10 100 10 60 0 100 -4 100 -10z m0 -80 l0 -50 -100 0 -100 0 0
50 0 50 100 0 100 0 0 -50z m40 20 c0 -5 -4 -10 -10 -10 -5 0 -10 5 -10 10 0
6 5 10 10 10 6 0 10 -4 10 -10z m0 -80 l0 -50 -100 0 c-93 0 -100 1 -100 20 0
17 8 19 88 22 87 3 87 3 90 31 6 47 22 30 22 -23z"/>
</g>
</svg>
