<?xml version="1.0" encoding="UTF-8"?>
<svg version="1.1" xmlns="http://www.w3.org/2000/svg" width="32" height="32">
<path d="M0 0 C4.90025583 2.08539784 7.63183467 5.27053359 10 10 C10.91469792 15.59490229 11.07496122 21.23570406 7.8125 26.0625 C4.97701587 29.60010401 1.62054595 31.73506061 -2.8671875 32.46875 C-8.76234082 32.52999835 -12.91027142 32.33909543 -17.59765625 28.58203125 C-22.03474417 23.57640282 -22.58635791 19.46828479 -22.41796875 12.94921875 C-21.81040874 8.66222989 -20.22620183 5.85976903 -17 3 C-11.57528041 -0.88266732 -6.4705304 -0.91701557 0 0 Z " fill="#85DFFC" transform="translate(22,0)"/>
<path d="M0 0 C0 1.32 0 2.64 0 4 C1.65 2.68 3.3 1.36 5 0 C6.875 0.625 6.875 0.625 9 2 C10.66783878 5.75263725 11.24045528 8.91226018 11 13 C11.66 13 12.32 13 13 13 C13.04898437 12.38511719 13.09796875 11.77023438 13.1484375 11.13671875 C13.22320313 10.32847656 13.29796875 9.52023438 13.375 8.6875 C13.44460937 7.88699219 13.51421875 7.08648437 13.5859375 6.26171875 C14 4 14 4 16 1 C17.875 0.0625 17.875 0.0625 20 0 C22.25 1.9375 22.25 1.9375 24 4 C24 2.68 24 1.36 24 0 C25.32 0.33 26.64 0.66 28 1 C27.54572404 5.88346661 26.42657167 8.47824579 23 12 C17.55293911 15.8653542 12.48419303 15.91895186 6 15 C1.28156491 12.99197946 -1.94367296 9.71745614 -4 5 C-4 3.68 -4 2.36 -4 1 C-2 0 -2 0 0 0 Z " fill="#30485C" transform="translate(4,17)"/>
<path d="M0 0 C2.3125 1.25 2.3125 1.25 3.3125 2.25 C3.79387536 8.6282235 3.79387536 8.6282235 1.8125 11.1875 C-0.14952259 13.88528106 0.13993436 16.03079014 0.2734375 19.27734375 C0.32148818 21.7039033 -0.10045148 23.90180592 -0.6875 26.25 C-1.3475 26.25 -2.0075 26.25 -2.6875 26.25 C-3.6775 22.62 -4.6675 18.99 -5.6875 15.25 C-9.8365712 14.9518576 -9.8365712 14.9518576 -13.6875 17.25 C-14.0175 13.62 -14.3475 9.99 -14.6875 6.25 C-13.3675 5.59 -12.0475 4.93 -10.6875 4.25 C-8.6875 6.25 -8.6875 6.25 -8.5625 8.875 C-8.60375 9.65875 -8.645 10.4425 -8.6875 11.25 C-7.6975 11.58 -6.7075 11.91 -5.6875 12.25 C-6.0175 11.26 -6.3475 10.27 -6.6875 9.25 C-7.25100626 2.93872987 -7.25100626 2.93872987 -5 0.1875 C-2.6875 -0.75 -2.6875 -0.75 0 0 Z " fill="#F3CB5E" transform="translate(17.6875,3.75)"/>
<path d="M0 0 C0 1.65 0 3.3 0 5 C-0.99 5.495 -0.99 5.495 -2 6 C-2 9.3 -2 12.6 -2 16 C-3.32 15.67 -4.64 15.34 -6 15 C-6 13.35 -6 11.7 -6 10 C-7.32 10 -8.64 10 -10 10 C-10 12.31 -10 14.62 -10 17 C-11.32 17.33 -12.64 17.66 -14 18 C-14.50830676 12.20530295 -14.12106914 9.0438652 -10.4296875 4.4765625 C-7.0552047 0.99144092 -4.8467903 0 0 0 Z " fill="#83DEFB" transform="translate(14,0)"/>
<path d="M0 0 C1.32 0.66 2.64 1.32 4 2 C4 3.65 4 5.3 4 7 C4.99 7.33 5.98 7.66 7 8 C7.33 7.34 7.66 6.68 8 6 C10.29013653 9.4352048 10.17842973 10.985331 10 15 C9.38125 14.01 9.38125 14.01 8.75 13 C8.1725 12.34 7.595 11.68 7 11 C3.23312136 11 2.08809695 11.23537317 -1 13 C-1.22151549 11.20991533 -1.42682213 9.41781838 -1.625 7.625 C-1.74101563 6.62726562 -1.85703125 5.62953125 -1.9765625 4.6015625 C-1.98429688 3.74304688 -1.99203125 2.88453125 -2 2 C-1.34 1.34 -0.68 0.68 0 0 Z " fill="#B3D7E3" transform="translate(5,8)"/>
<path d="M0 0 C1.32 0.33 2.64 0.66 4 1 C3.67 4.96 3.34 8.92 3 13 C1.68 12.34 0.36 11.68 -1 11 C-1.6796875 8.90625 -1.6796875 8.90625 -1.875 6.5 C-1.95492188 5.7059375 -2.03484375 4.911875 -2.1171875 4.09375 C-2 2 -2 2 0 0 Z " fill="#EBC67A" transform="translate(25,8)"/>
<path d="M0 0 C2.3125 1.25 2.3125 1.25 3.3125 2.25 C3.35313832 3.91617115 3.355221 5.58388095 3.3125 7.25 C2.6525 7.25 1.9925 7.25 1.3125 7.25 C1.3125 5.93 1.3125 4.61 1.3125 3.25 C-0.6675 3.25 -2.6475 3.25 -4.6875 3.25 C-4.6875 4.9 -4.6875 6.55 -4.6875 8.25 C-5.6775 8.745 -5.6775 8.745 -6.6875 9.25 C-7.17118522 2.84117083 -7.17118522 2.84117083 -5 0.1875 C-2.6875 -0.75 -2.6875 -0.75 0 0 Z " fill="#415E70" transform="translate(17.6875,3.75)"/>
<path d="M0 0 C1.32 0.66 2.64 1.32 4 2 C3.75 4.375 3.75 4.375 3 7 C0.9375 8.3125 0.9375 8.3125 -1 9 C-1.625 5.625 -1.625 5.625 -2 2 C-1.34 1.34 -0.68 0.68 0 0 Z " fill="#F2CB59" transform="translate(5,8)"/>
<path d="M0 0 C0.33 0.66 0.66 1.32 1 2 C1.66 2 2.32 2 3 2 C2.6875 3.9375 2.6875 3.9375 2 6 C1.01 6.33 0.02 6.66 -1 7 C-2.68538601 8.99665314 -2.68538601 8.99665314 -4 11 C-4.36630156 7.06225823 -4.30233203 5.43460229 -2 2.125 C-1.34 1.42375 -0.68 0.7225 0 0 Z " fill="#A4D8E9" transform="translate(21,12)"/>
<path d="M0 0 C0.66 0 1.32 0 2 0 C2.84098656 4.01804691 3.05404945 7.01803543 2 11 C1.34 11 0.68 11 0 11 C-1.28571429 3.57142857 -1.28571429 3.57142857 0 0 Z " fill="#DD6E5E" transform="translate(15,19)"/>
<path d="M0 0 C2.0343459 1.41519715 2.90410393 2.54982123 3.421875 4.98046875 C3.66273952 6.98176954 3.83532741 8.9909944 4 11 C1.99952977 8.45394698 0.17427215 6.0335364 -1 3 C-0.67 2.01 -0.34 1.02 0 0 Z " fill="#27394D" transform="translate(11,18)"/>
<path d="M0 0 C0.33 0 0.66 0 1 0 C0.56179109 4.55737263 0.14958831 7.57653445 -3 11 C-2.25 3.375 -2.25 3.375 0 0 Z " fill="#27394C" transform="translate(20,18)"/>
<path d="M0 0 C0 2.64 0 5.28 0 8 C-1.32 7.67 -2.64 7.34 -4 7 C-3.625 4.0625 -3.625 4.0625 -3 1 C-1 0 -1 0 0 0 Z " fill="#7DDAF7" transform="translate(32,10)"/>
<path d="M0 0 C1.32 0.33 2.64 0.66 4 1 C3.67 2.65 3.34 4.3 3 6 C2.01 6 1.02 6 0 6 C0 4.02 0 2.04 0 0 Z " fill="#2F4153" transform="translate(28,17)"/>
<path d="M0 0 C0.66 0 1.32 0 2 0 C1.67 1.65 1.34 3.3 1 5 C0.01 5.33 -0.98 5.66 -2 6 C-1.125 1.125 -1.125 1.125 0 0 Z " fill="#E4C09F" transform="translate(6,15)"/>
<path d="M0 0 C2.0625 0.4375 2.0625 0.4375 4 1 C3.67 2.32 3.34 3.64 3 5 C3 4.34 3 3.68 3 3 C1.68 3 0.36 3 -1 3 C-1.33 3.99 -1.66 4.98 -2 6 C-1.125 1.125 -1.125 1.125 0 0 Z " fill="#4B6876" transform="translate(25,8)"/>
<path d="M0 0 C1.32 0.66 2.64 1.32 4 2 C3.67 3.32 3.34 4.64 3 6 C3 5.01 3 4.02 3 3 C1.68 3 0.36 3 -1 3 C-1.33 3.66 -1.66 4.32 -2 5 C-1.125 1.125 -1.125 1.125 0 0 Z " fill="#486370" transform="translate(5,8)"/>
</svg>
